<svg width="32" height="32" fill="none" xmlns="http://www.w3.org/2000/svg"><circle cx="16" cy="16" r="16" fill="#292929"/><g clip-path="url(#clip0)" fill="#fff"><path d="M16 9.212c.183.13.344.143.825.169 1.408.076 2.3.358 3.293 1.041 1.216.834 1.979 1.997 2.268 3.457.074.378.11.698.136 1.182.015.324.027.45.106.592a.725.725 0 00.648.347.733.733 0 00.56-.241c.174-.2.174-.386.157-.786-.05-1.24-.34-2.355-.86-3.313-.371-.68-.726-1.127-1.355-1.706-.671-.611-1.188-.953-1.978-1.307-.837-.375-1.43-.493-2.296-.592a11.65 11.65 0 00-.733-.05c-.435-.014-.605-.003-.806.164a.652.652 0 00-.232.531.65.65 0 00.266.512z"/><path d="M20.388 14.575c0 .351.031.68.4.851a.85.85 0 00.363.074c.114 0 .225-.02.31-.06.15-.072.3-.223.36-.361.074-.177.04-.813.019-.992-.1-.8-.397-1.557-.858-2.186-.836-1.138-2.088-1.826-3.721-2.045-.554-.077-.966-.104-1.208.242a.639.639 0 00.059.835c.179.19.435.233.662.25.649.048 1.375.247 1.852.508a3.468 3.468 0 011.328 1.265c.276.461.434 1.051.434 1.619z"/><path d="M18.968 12.428c-.365-.314-.793-.51-1.345-.618a4.07 4.07 0 00-.474-.053c-.23-.014-.324-.011-.488.063a.678.678 0 00-.38.473.637.637 0 00.156.57c.167.179.337.223.68.261.575.065.899.246 1.082.606.092.183.145.384.175.673.032.27.088.445.294.587a.79.79 0 00.455.137.754.754 0 00.481-.162h.002c.265-.225.276-.504.204-.94-.11-.696-.37-1.189-.842-1.597z"/><path d="M23.998 20.094a1.153 1.153 0 00-.299-.726c-.18-.199-1.327-1.05-1.84-1.378a15.984 15.984 0 00-1.322-.752 1.762 1.762 0 00-1.527-.018c-.218.107-.378.276-.689.635-.333.377-.402.45-.401.45a1.554 1.554 0 01-.143.069c-.248.105-.654.018-1.314-.283-.558-.253-1.058-.578-1.623-1.052-.482-.402-.966-.924-1.235-1.329-.373-.561-.6-1.211-.602-1.513 0-.117.055-.286.115-.379l.026-.025a8.022 8.022 0 01.43-.342c.615-.454.81-.638.914-.979.1-.316.012-.704-.278-1.222-.432-.773-1.803-2.42-2.375-2.766a2.052 2.052 0 00-.359-.164 1.768 1.768 0 00-.781-.063c-.29.056-.609.227-1.311.706-.385.264-.979.78-1.14 1.028-.38.598-.283 1.117.062 1.986.328.83.749 1.665 1.25 2.48l.026.041c.1.163.204.326.312.49l.028.04c.107.16.216.32.33.48l.18.245c.066.091.133.182.202.273a19.674 19.674 0 005.857 5.157l.087.051c.307.176.633.353.97.524l.132.066c.349.174.68.33 1.013.476l.104.045c.393.17.753.317 1.1.448.418.158.612.207.906.207.053 0 .108-.002.17-.004.19-.009.36-.035.521-.081.227-.065.454-.173.715-.341l.139-.093c.058-.04.119-.089.181-.139.296-.24.636-.59.91-.933.146-.184.34-.451.437-.68.09-.214.132-.428.122-.635z"/></g><defs><clipPath id="clip0"><path fill="#fff" transform="translate(8 8)" d="M0 0h16v15H0z"/></clipPath></defs></svg>