<svg width="31" height="32" fill="none" xmlns="http://www.w3.org/2000/svg"><path d="M18.663 16.163c0 1.714-1.345 3.102-3.005 3.102s-3.005-1.388-3.005-3.102c0-1.713 1.345-3.102 3.005-3.102s3.005 1.39 3.005 3.102z" fill="#292929"/><path d="M22.418 10.597a2.849 2.849 0 00-.664-1.053 2.74 2.74 0 00-1.02-.685c-.313-.126-.783-.275-1.648-.316C18.15 8.5 17.87 8.49 15.5 8.49s-2.65.009-3.586.053c-.865.041-1.335.19-1.648.316a2.74 2.74 0 00-1.02.685 2.85 2.85 0 00-.664 1.053c-.122.323-.266.808-.306 1.701-.042.966-.052 1.256-.052 3.702 0 2.446.01 2.736.052 3.702.04.893.184 1.378.306 1.7.142.399.369.759.664 1.054.286.304.634.539 1.02.685.313.126.783.275 1.648.316.936.044 1.216.053 3.586.053s2.65-.01 3.586-.053c.865-.04 1.335-.19 1.648-.316a2.988 2.988 0 001.684-1.738c.122-.323.266-.808.306-1.701.043-.966.052-1.256.052-3.702 0-2.446-.01-2.736-.052-3.702-.04-.893-.184-1.378-.306-1.7zM15.5 20.704c-2.517 0-4.557-2.106-4.557-4.704s2.04-4.704 4.557-4.704c2.517 0 4.557 2.106 4.557 4.704s-2.04 4.704-4.557 4.704zm4.737-8.495c-.588 0-1.065-.492-1.065-1.1 0-.606.477-1.098 1.065-1.098.589 0 1.065.492 1.065 1.099s-.476 1.1-1.065 1.1z" fill="#292929"/><path d="M15.5 0C6.94 0 0 7.165 0 16s6.94 16 15.5 16C24.06 32 31 24.835 31 16S24.06 0 15.5 0zm8.847 19.788c-.043.978-.194 1.646-.414 2.23a4.627 4.627 0 01-2.603 2.687c-.566.227-1.213.382-2.16.427-.95.045-1.253.055-3.67.055s-2.72-.01-3.67-.055c-.947-.045-1.594-.2-2.16-.427a4.35 4.35 0 01-1.576-1.06 4.52 4.52 0 01-1.027-1.627c-.22-.584-.37-1.252-.413-2.23C6.61 18.808 6.6 18.495 6.6 16s.01-2.808.053-3.788c.043-.978.194-1.646.414-2.23a4.517 4.517 0 011.027-1.627c.444-.468.982-.83 1.576-1.06.566-.227 1.213-.382 2.16-.427.95-.045 1.253-.056 3.67-.056s2.72.011 3.67.056c.947.045 1.594.2 2.16.427a4.34 4.34 0 011.577 1.06 4.517 4.517 0 011.026 1.627c.22.584.37 1.252.414 2.23.043.98.053 1.293.053 3.788s-.01 2.808-.053 3.788z" fill="#292929"/></svg>