<svg width="31" height="32" fill="none" xmlns="http://www.w3.org/2000/svg"><path d="M15.676 13.388c1.49-.006 2.676-1.24 2.67-2.782-.005-1.541-1.194-2.768-2.684-2.77-1.504 0-2.704 1.248-2.693 2.804.012 1.535 1.212 2.753 2.707 2.748z" fill="#292929"/><path d="M15.5 0C6.94 0 0 7.164 0 16s6.94 16 15.5 16C24.06 32 31 24.836 31 16S24.06 0 15.5 0zm.022 4.866c3.02.008 5.443 2.557 5.427 5.708-.015 3.079-2.478 5.573-5.492 5.563-2.983-.01-5.43-2.564-5.412-5.648.016-3.118 2.464-5.632 5.477-5.623zm6.115 13.485c-.667.708-1.471 1.22-2.363 1.577-.844.337-1.768.507-2.684.62.139.156.204.232.29.32 1.242 1.29 2.49 2.572 3.728 3.865.422.44.51.986.277 1.498-.253.56-.822.928-1.38.888-.353-.025-.628-.206-.873-.46-.937-.974-1.893-1.93-2.81-2.922-.268-.29-.396-.234-.633.017a189.825 189.825 0 01-2.865 2.97c-.433.44-.948.52-1.45.268-.534-.267-.873-.83-.847-1.395.018-.382.2-.675.455-.936 1.23-1.267 2.455-2.537 3.681-3.806.082-.085.157-.174.275-.305-1.672-.18-3.18-.605-4.471-1.647-.16-.13-.326-.255-.472-.4-.565-.56-.622-1.202-.175-1.863.383-.566 1.025-.717 1.692-.392.13.063.253.142.37.226 2.406 1.706 5.712 1.753 8.127.076a2.18 2.18 0 01.791-.422c.576-.153 1.114.066 1.423.586.354.595.35 1.175-.086 1.637z" fill="#292929"/></svg>