<svg width="32" height="32" fill="none" xmlns="http://www.w3.org/2000/svg"><path d="M16 0C7.164 0 0 7.163 0 16s7.164 16 16 16 16-7.163 16-16S24.836 0 16 0zm8.116 17.73c.746.729 1.535 1.414 2.204 2.218.297.355.576.723.79 1.137.303.59.029 1.236-.5 1.27h-3.277c-.847.07-1.52-.271-2.088-.85-.454-.461-.874-.954-1.311-1.43a3.067 3.067 0 00-.59-.526c-.447-.29-.835-.202-1.091.265-.261.475-.32 1.002-.346 1.53-.035.773-.268.975-1.044 1.011-1.657.078-3.23-.173-4.69-1.009-1.29-.737-2.288-1.777-3.157-2.954-1.693-2.296-2.99-4.815-4.155-7.407-.262-.584-.07-.896.573-.908 1.07-.02 2.14-.018 3.21-.001.435.007.723.256.89.667.579 1.422 1.287 2.776 2.175 4.03.237.335.479.668.823.904.38.26.669.175.848-.25.115-.269.164-.557.189-.845.085-.99.095-1.978-.052-2.963-.092-.617-.438-1.015-1.053-1.131-.313-.06-.267-.175-.115-.354.264-.31.512-.5 1.006-.5h3.704c.584.114.715.375.794.963l.003 4.116c-.007.228.114.902.523 1.051.327.108.543-.154.74-.362.887-.942 1.52-2.055 2.087-3.206.25-.508.466-1.033.675-1.56.156-.389.398-.58.837-.574l3.567.005c.105 0 .212 0 .316.018.6.103.765.362.58.948-.293.921-.862 1.689-1.418 2.458-.596.824-1.23 1.619-1.82 2.446-.543.756-.5 1.137.173 1.793z" fill="#292929"/></svg>