<svg width="32" height="32" fill="none" xmlns="http://www.w3.org/2000/svg"><circle cx="16" cy="16" r="16" fill="#292929"/><g clip-path="url(#clip0)" fill="#fff"><path d="M20.86 18.326l-.007.06c-1.741-.868-1.923-.983-2.148-.646-.156.233-.61.763-.748.92-.138.154-.276.166-.511.06-.238-.12-1-.369-1.902-1.176-.703-.63-1.175-1.402-1.315-1.64-.231-.4.254-.457.696-1.293.079-.166.038-.297-.02-.415-.06-.118-.532-1.282-.73-1.746-.19-.462-.386-.404-.532-.404-.456-.04-.79-.033-1.083.273-1.278 1.404-.956 2.853.138 4.393 2.148 2.812 3.293 3.33 5.386 4.049.565.18 1.08.154 1.488.096.455-.072 1.4-.571 1.596-1.13.202-.557.202-1.02.143-1.127-.059-.107-.214-.167-.451-.274z"/><path d="M23.245 9.73C17.158 3.844 7.084 8.112 7.08 16.413a9.37 9.37 0 001.263 4.707L7 25.999l5.015-1.308c6.258 3.38 13.982-1.108 13.985-8.272a9.34 9.34 0 00-2.767-6.659l.012-.03zm1.173 6.663c-.005 6.043-6.638 9.817-11.884 6.732l-.285-.17-2.969.773.796-2.886-.19-.297c-3.264-5.197.487-11.99 6.671-11.99a7.81 7.81 0 015.558 2.304 7.749 7.749 0 012.303 5.534z"/></g><defs><clipPath id="clip0"><path fill="#fff" transform="translate(7 7)" d="M0 0h19v19H0z"/></clipPath></defs></svg>