<svg version="1.0" xmlns="http://www.w3.org/2000/svg" width="102.667" height="102.667" viewBox="0 0 77 77"><path d="M30.6 2.1c.4.7-4.5 2.4-5.9 2.1-1.5-.4-4.8 1.9-4.2 2.8.3.6-.1.7-.9.4-.8-.3-1.9.3-2.6 1.5-.6 1.2-2 2.1-3 2.1-1.2 0-2 .7-2 1.7 0 .9-.3 1.4-.6 1-.9-.9-2.5 1.1-5.7 7-2.6 4.8-2.6 5.2-1 6.3 1.7 1 1.6 1-.2.8-1.5-.2-2 .3-2 2 0 1.2-.4 2.6-1 3C-.1 34 .1 37 1.8 37c1.3 0 1.3.2-.3 1.4C-1.2 40.3.2 43 4 43c1.7 0 3-.5 3.1-1.3.7-13.7.6-13.6 2-11.7.9 1.2 1 1.2.5-.3-.3-1-.6-2.5-.6-3.2 0-.7-.6-1.5-1.2-1.8-.7-.2-.6-.3.3-.2 2.1.3 3.7-.6 4.1-2.5.2-.8 1-2 1.8-2.7 1.3-1 1.3-1.2-.2-1.8-1-.4-1.8-1.2-1.8-1.8 0-.7.4-.7 1.2.1 1.4 1.4 6.2 1.6 5.3.2-.3-.5 1-1.7 2.9-2.6 1.9-1 3.7-2.6 4-3.8.4-1.5.8-1.7 1.4-.9.9 1.4 5.2.6 5.2-.9 0-.7.5-.6 1.3.1 1.6 1.3 2.8.5 2.1-1.4-.3-.7 0-1.6.7-2.1.7-.4 1-.3.6.4-1.2 1.8.3 3.8 2.8 3.7 1.4-.1 2.8-.4 3.1-.8.4-.4 1.2 0 1.8.8.6.8 2.7 1.6 4.6 1.7 1.9.1 4.3 1.1 5.2 2 1 1 2.5 1.8 3.3 1.8.8 0 1.5.7 1.5 1.5s.7 1.5 1.5 1.5 1.5.4 1.5 1c0 1.6 2.8 1.2 4.8-.8 1.9-1.9 1.8-5.6-.1-4.9-.7.2-1.8-.3-2.5-1.2-1-1.2-1.2-1.3-.6-.1.7 1.3.5 1.3-.9.1C61.4 10 61 10 61 11c0 1.8-1.1.6-1.4-1.4-.1-.9-.5-1.5-.9-1.4-.3.2-1.3-.6-2.1-1.7-1.1-1.4-1.5-1.6-1.6-.6 0 1.1-.4.9-1.5-.5C52.7 4.3 52 4 52 4.7c0 1.9-2 1.6-2.8-.5-.4-.9-1.4-1.8-2.2-1.9-.8-.1-2.5-.4-3.7-.7-1.5-.3-2-.1-1.7.9.3.7.1 1.6-.4 1.9-.5.3-.9-.2-.8-1.1.1-1.4-.8-1.7-5.1-1.7-2.8-.1-4.9.2-4.7.5z"/><path d="M34 11.3c0 1-.4 1.5-1 1.2-1.7-1-9.6 3.1-13.7 7.2-10.5 10.5-11 26.5-1.2 37.7 2.2 2.5 3.8 5 3.4 5.6-.4.6-1.1.8-1.6.4-.5-.3-.7-1-.4-1.5.3-.5-.1-.6-.9-.3-1.1.4-1.6 0-1.6-1 0-.9-.8-1.6-1.7-1.7-1 0-1.3-.3-.6-.6.8-.3.4-1.3-1.2-2.9C12.1 54 11 52 11 51c0-1.2-.5-1.7-1.4-1.4-.8.3-1.6-.4-2-2-.4-1.6-1.1-2.3-2-2-1.9.7-2.7 5.4-1 5.4.8 0 1.1.6.8 1.5-.4.8-.1 1.5.5 1.5s.8.7.5 1.5c-.4.8-.1 1.5.5 1.5s1.1.9 1.1 2c0 1.8 1 2.5 3.2 2.1.4 0 .5.6.2 1.4-.4.9 0 1.5 1 1.5.9 0 1.6.7 1.6 1.5s.6 1.5 1.3 1.5c.7 0 1.8.9 2.5 2 .7 1.2 1.8 1.7 2.7 1.3 1-.3 1.5-.1 1.3.8-.2.7.6 1.5 1.7 1.7 1.1.2 2.5 1 3.2 1.8.6.9 1.4 1.1 1.7.6.3-.5 1.6-.7 2.9-.5 2.9.6 4.3-2 2.2-3.7-.8-.7-1.2-1.6-.9-2.1.4-.8-2.4-1.3-6.3-1.2-.7 0-1.1-.4-1-1 .1-.6-.5-1.1-1.3-1.2-1.4 0-2.2-2.3-1-2.7 1-.3 7.9 2.6 7.5 3.2-.7 1.1 15.4.3 16.8-.9.8-.6 1.9-1 2.4-.9 1.6.5 10-6.6 11.9-10 1-1.9 1.8-5.1 1.8-7.3.1-2.1.7-4.1 1.4-4.4 2.8-1.1.2-14.2-3.9-19.4-1.5-1.9-1.7-2.7-.7-4 1-1.3 1-1.4-.1-.5-1 .9-2.3.6-5.4-1.6-2.3-1.5-5.2-3.1-6.5-3.4-1.3-.5-2-1.2-1.6-1.9.5-.9.3-.9-.6 0-1.1 1-1.6.9-2.7-.5-.8-.9-1.2-1.2-.8-.5.8 1.6-6.7 1.5-7.7-.1-.5-.7-.8-.4-.8.7zM44.5 18c2.2.6 2.5.8.9.9-1.2 0-2.7.8-3.4 1.6-1.5 1.8-2 7.6-.6 6.8.6-.4.7.1.2 1.3-.5 1.4-.4 1.6.4.8.7-.7 2-.9 3-.7 1.8.5 1.8.7.3 4.7-2 5.1-4.1 7.6-6.3 7.6s-4.4-2.5-3.5-4c.4-.6.1-.9-.6-.8-1.9.5-2.8-4.4-1.2-6.4 1.7-1.9 2.5-7.1 1-6.1-.6.4-.8 0-.5-.9.6-1.4-.2-1.8-4.4-1.9-2.7 0-2.2-.8 1.5-2.4 3.5-1.5 8.4-1.7 13.2-.5zm8.4 4.7c2.9 2.9 7.1 9.1 7.1 10.7 0 .4-1.4-.6-3.2-2.3-1.7-1.7-4-3.4-5.1-3.7-1.2-.4-1.7-1.2-1.4-2.4.2-.9 0-2.5-.5-3.4-1.3-2.4-.2-2 3.1 1.1zm-28.2 3.4c-.3 1.1-.1 1.7.4 1.3 1.6-1 1 .9-1.1 3.1-2.2 2.3-6.7 14.1-5.8 15.1.4.3 2.1-1 3.8-3 1.8-2 3.6-3.3 4.1-3 .5.3.9 0 .9-.6s1-.1 2.3 1.1c5.8 5.5 16.2 5.3 20.5-.4 1.7-2.3 3.7-2.2 6.3.4 1.7 1.7 2 3 1.7 6.4-.6 5.2-4.5 9.8-10.5 12.5-6.3 2.8-9.4 3-15.2 1-6-2-10.4-5.8-13.3-11.5-2.1-4.1-3.3-14.5-1.7-14.5.5 0 .9-.9.9-2.1 0-2.6 4.9-9.1 6.2-8.3.5.4.8 1.5.5 2.5zm39.1 15.4c-.3.3-.9-.2-1.2-1.2-.6-1.4-.5-1.5.5-.6.7.7 1 1.5.7 1.8zm2.1-21.3c-1.1 2.7-1 3.2.5 4.3.9.7 1.6 1.7 1.4 2.1-.3 1.4 1.3 5.8 2.5 6.5.5.4 0 1.2-1.2 1.8-1.1.7-2.1 1.9-2 2.9 0 1.4.2 1.4.8-.2.7-1.9.8-1.9 1.3.2.4 1.3.2 2.2-.5 2.2s-.8.3-.1 1c1.4 1.4 7.4.1 8.1-1.8.4-.8-.2-2.1-1.2-2.8-1-.8-1.4-1.4-.8-1.4.6 0 1.3-.7 1.6-1.4.4-1.1.1-1.3-1.1-.9-1.4.6-1.5.4-.4-.9.9-1.1 1-1.8.2-2.3-.5-.3-1-1.5-1-2.5s-.4-2-1-2.2c-.5-.2-1.1-1.3-1.3-2.6-.2-1.2-1.3-2.9-2.4-3.7-1.9-1.4-2.2-1.2-3.4 1.7z"/><path d="M70 45.4c0 .7-.7 1.9-1.5 2.6-.8.7-1.3 1.6-1 2 .3.4-.2 1-1 1.4-.8.3-1.5 1.7-1.5 3.1 0 2.1-.9 3-4.2 4.6-2.4 1.1-3.5 1.7-2.6 1.5 3.2-.9.8 2-2.7 3.4-1.9.8-3.5 1.8-3.5 2.4 0 .5-.3.6-.7.3-.3-.4-1.2-.2-1.8.3-.7.6-2.4 1.1-3.9 1.2-1.4.1-2.6.5-2.6.8 0 .4-1.4.5-3.1.2-2.9-.4-3-.3-2.7 2.9.2 2.4.7 3.3 1.8 3.1.8-.2 3-.4 4.8-.4 1.7 0 3.5-.4 3.8-.9.3-.5 1-.7 1.5-.3.5.3 2.5-.4 4.4-1.6 1.9-1.2 3.5-1.8 3.5-1.3 0 .4.4.3.8-.4.4-.6 2.5-2.5 4.6-4.2 2.1-1.7 3.6-3.1 3.3-3.1-.3 0 .4-1.1 1.6-2.4 6.6-7.1 7-7.7 5.1-6.9-1.7.6-1.7.5-.5-1 .7-.9 1.1-2.4.7-3.2-.3-.9-.2-1.3.4-1 .6.3 1-.5 1-1.9 0-1.9-.5-2.6-2-2.6-1.1 0-2 .6-2 1.4z"/></svg>