<svg width="21" height="21" fill="none" xmlns="http://www.w3.org/2000/svg"><path d="M19.512 3.453C18.519 2.484 17.148 2 15.398 2a4.67 4.67 0 00-1.482.252 5.992 5.992 0 00-1.406.68 15.01 15.01 0 00-1.12.802c-.312.25-.609.516-.89.797a10.84 10.84 0 00-.89-.797 15.01 15.01 0 00-1.12-.802 6 6 0 00-1.406-.68A4.674 4.674 0 005.6 2c-1.75 0-3.12.484-4.113 1.453C.496 4.422 0 5.766 0 7.484c0 .524.092 1.063.275 1.617.184.555.393 1.028.627 1.418.235.39.5.772.797 1.143.297.37.514.627.65.767.137.14.245.243.323.305l7.312 7.055c.141.14.313.211.516.211s.375-.07.516-.211l7.3-7.032C20.106 10.97 21 9.211 21 7.484c0-1.719-.496-3.062-1.488-4.03zm-2.215 8.203l-6.797 6.55-6.808-6.562C2.23 10.184 1.5 8.797 1.5 7.484c0-.633.084-1.191.252-1.675.168-.485.383-.87.645-1.155.261-.285.58-.517.955-.697.375-.18.742-.3 1.101-.363.36-.063.742-.094 1.149-.094.406 0 .843.1 1.312.299.469.199.9.449 1.295.75.395.3.732.582 1.014.843.281.262.515.502.703.721.14.172.332.258.574.258a.703.703 0 00.574-.258 9.08 9.08 0 01.703-.72c.282-.262.62-.543 1.014-.844a5.979 5.979 0 011.295-.75c.469-.2.906-.299 1.313-.299.406 0 .789.031 1.148.094.36.062.727.183 1.102.363.375.18.693.412.955.697.261.285.476.67.644 1.155.168.484.252 1.042.252 1.675 0 1.313-.734 2.703-2.203 4.172z" fill="#EF6437"/></svg>